<svg width="800" height="800" viewBox="0 0 64 64" xmlns="http://www.w3.org/2000/svg"><path d="M5.04 25.35c.01.27.12.53.3.73L31.3 52.85c.15.15.35.24.56.26h.3c.21-.03.4-.12.55-.26l25.96-26.77c.19-.2.31-.45.34-.73l-26.74-5.09-27.23 5.09Z" fill="#ff9dd1"/><path d="M41.46 25.35H23.04l8.8 27.76c.1.02.2.02.3 0l9.31-27.76ZM15.47 11.07c-.28.14-.53.35-.72.6L5.24 24.53c-.16.24-.23.53-.2.81h53.95c.03-.29-.05-.59-.22-.83l-9.08-12.83c-.18-.26-.42-.46-.7-.61H15.47Z" fill="#edb1c8"/><path d="m32.23 10.86-9.18 14.48h18.41l-9.23-14.48Z" fill="#f3c9e0"/><path d="m32.23 10.86 9.23 14.48 7.53-14.26c-.28-.14-.59-.22-.9-.22H32.23Z" fill="#e596c9"/><path d="M16.37 10.86c-.31 0-.62.07-.9.21l7.58 14.27 9.18-14.48H16.37Z" fill="#e596c9"/><path d="M50.51 11.11a2.972 2.972 0 0 0-2.42-1.25H16.37c-.95 0-1.85.46-2.42 1.22L4.43 23.94c-.64.87-.56 2.06.19 2.83l25.95 26.77c.74.76 1.97.85 2.85 0l25.95-26.77c.74-.77.84-1.96.22-2.83l-9.08-12.83ZM40.07 26.35l-8.05 24-7.61-24h15.66Zm-15.21-2 7.37-11.62 7.4 11.62H24.86Zm9.19-12.49h13.39l-6.07 11.5-7.32-11.5Zm-10.93 11.5-6.1-11.5h13.39l-7.29 11.5Zm6.64 26.47L6.99 26.35h15.32l7.45 23.48Zm12.42-23.48H57l-22.67 23.4 7.85-23.4Zm.94-2 6.11-11.58 8.2 11.58H43.12Zm-27.9-11.62 6.17 11.62H6.62l8.6-11.62Z"/></svg>