<svg xmlns="http://www.w3.org/2000/svg" viewBox="0 0 64 64"><path d="m38.29 14.41 4-5.49a.77.77 0 0 0 .56-.92.74.74 0 0 0-.74-.88c-.14-.1-3.87-4-3.94-3.83-.31-.13-11.42 0-11.72 0a.45.45 0 0 0-.23 0l-.22.08v.06a.44.44 0 0 0-.14.13l-3.62 3.56c-.95 0-1 1.6-.18 1.8l4.08 5.6c-28.81 6.42-23.3 47.92 6.38 46.39 30.1 1.47 35.13-40.7 5.77-46.5ZM32.52 58.9C6.68 56 7 19 32.52 16.21c25.56 2.89 25.82 39.72 0 42.69Zm3-50-1.72 5.19c-1.08.09-2.1 0-3.19 0l-1.75-5.15Zm1.1 5.26c-.41 0-.82-.06-1.24-.07L37.1 8.9h3.35ZM40 7.12h-2.32l.58-1.73Zm-3.1-2.37-.8 2.37h-7.85l-.79-2.37Zm-10.8.64.58 1.73h-2.32Zm-2.17 3.55h3.35L29 14.16c-.41 0-.81.06-1.21.11ZM9.06 37.55a21.44 21.44 0 0 1 12.36-19.41c-13.7 9.05-13.69 29.79 0 38.86A21.46 21.46 0 0 1 9.06 37.55ZM43.62 57c13.7-9 13.7-29.79 0-38.83C60 25.77 60 49.35 43.62 57Z" data-name="Layer 10"/></svg>